<?xml version="1.0" encoding="UTF-8" standalone="no"?>
<!DOCTYPE svg PUBLIC "-//W3C//DTD SVG 1.1//EN" "http://www.w3.org/Graphics/SVG/1.1/DTD/svg11.dtd">
<svg width="100%" height="100%" viewBox="0 0 100 100" version="1.1" xmlns="http://www.w3.org/2000/svg" xmlns:xlink="http://www.w3.org/1999/xlink" xml:space="preserve" xmlns:serif="http://www.serif.com/" style="fill-rule:evenodd;clip-rule:evenodd;stroke-linecap:square;stroke-linejoin:round;stroke-miterlimit:1.5;">
    <rect x="0" y="0" width="100" height="100" style="fill:white;"/>
    <rect x="38.8" y="10" width="3.2" height="3.2"/>
    <rect x="54.8" y="10" width="3.2" height="3.2"/>
    <rect x="35.6" y="13.2" width="3.2" height="3.2"/>
    <rect x="38.8" y="13.2" width="3.2" height="3.2"/>
    <rect x="45.2" y="13.2" width="3.2" height="3.2"/>
    <rect x="48.4" y="13.2" width="3.2" height="3.2"/>
    <rect x="51.6" y="13.2" width="3.2" height="3.2"/>
    <rect x="54.8" y="13.2" width="3.2" height="3.2"/>
    <rect x="58" y="13.2" width="3.2" height="3.2"/>
    <rect x="38.8" y="16.4" width="3.2" height="3.2"/>
    <rect x="45.2" y="16.4" width="3.2" height="3.2"/>
    <rect x="51.6" y="16.4" width="3.2" height="3.2"/>
    <rect x="61.2" y="16.4" width="3.2" height="3.2"/>
    <rect x="35.6" y="19.6" width="3.2" height="3.2"/>
    <rect x="38.8" y="19.6" width="3.2" height="3.2"/>
    <rect x="48.4" y="19.6" width="3.2" height="3.2"/>
    <rect x="51.6" y="19.6" width="3.2" height="3.2"/>
    <rect x="54.8" y="19.6" width="3.2" height="3.2"/>
    <rect x="58" y="19.6" width="3.2" height="3.2"/>
    <rect x="54.8" y="22.8" width="3.2" height="3.2"/>
    <rect x="61.2" y="22.8" width="3.2" height="3.2"/>
    <rect x="35.6" y="26" width="3.2" height="3.2"/>
    <rect x="42" y="26" width="3.2" height="3.2"/>
    <rect x="45.2" y="26" width="3.2" height="3.2"/>
    <rect x="48.4" y="26" width="3.2" height="3.2"/>
    <rect x="51.6" y="26" width="3.2" height="3.2"/>
    <rect x="54.8" y="26" width="3.2" height="3.2"/>
    <rect x="35.6" y="29.2" width="3.2" height="3.2"/>
    <rect x="42" y="29.2" width="3.2" height="3.2"/>
    <rect x="48.4" y="29.2" width="3.2" height="3.2"/>
    <rect x="54.8" y="29.2" width="3.2" height="3.2"/>
    <rect x="61.2" y="29.2" width="3.2" height="3.2"/>
    <rect x="45.2" y="32.4" width="3.2" height="3.2"/>
    <rect x="51.6" y="32.4" width="3.2" height="3.2"/>
    <rect x="10" y="35.6" width="3.2" height="3.2"/>
    <rect x="13.2" y="35.6" width="3.2" height="3.2"/>
    <rect x="16.4" y="35.6" width="3.2" height="3.2"/>
    <rect x="19.6" y="35.6" width="3.2" height="3.2"/>
    <rect x="22.8" y="35.6" width="3.2" height="3.2"/>
    <rect x="29.2" y="35.6" width="3.2" height="3.2"/>
    <rect x="32.4" y="35.6" width="3.2" height="3.2"/>
    <rect x="35.6" y="35.6" width="3.2" height="3.2"/>
    <rect x="38.8" y="35.6" width="3.2" height="3.2"/>
    <rect x="42" y="35.6" width="3.2" height="3.2"/>
    <rect x="54.8" y="35.6" width="3.2" height="3.2"/>
    <rect x="58" y="35.6" width="3.2" height="3.2"/>
    <rect x="64.4" y="35.6" width="3.2" height="3.2"/>
    <rect x="70.8" y="35.6" width="3.2" height="3.2"/>
    <rect x="77.2" y="35.6" width="3.2" height="3.2"/>
    <rect x="83.6" y="35.6" width="3.2" height="3.2"/>
    <rect x="10" y="38.8" width="3.2" height="3.2"/>
    <rect x="13.2" y="38.8" width="3.2" height="3.2"/>
    <rect x="16.4" y="38.8" width="3.2" height="3.2"/>
    <rect x="38.8" y="38.8" width="3.2" height="3.2"/>
    <rect x="54.8" y="38.8" width="3.2" height="3.2"/>
    <rect x="64.4" y="38.8" width="3.2" height="3.2"/>
    <rect x="70.8" y="38.8" width="3.2" height="3.2"/>
    <rect x="74" y="38.8" width="3.2" height="3.2"/>
    <rect x="86.8" y="38.8" width="3.2" height="3.2"/>
    <rect x="10" y="42" width="3.2" height="3.2"/>
    <rect x="29.2" y="42" width="3.2" height="3.2"/>
    <rect x="32.4" y="42" width="3.2" height="3.2"/>
    <rect x="35.6" y="42" width="3.2" height="3.2"/>
    <rect x="38.8" y="42" width="3.2" height="3.2"/>
    <rect x="48.4" y="42" width="3.2" height="3.2"/>
    <rect x="51.6" y="42" width="3.2" height="3.2"/>
    <rect x="58" y="42" width="3.2" height="3.2"/>
    <rect x="64.4" y="42" width="3.2" height="3.2"/>
    <rect x="67.6" y="42" width="3.2" height="3.2"/>
    <rect x="74" y="42" width="3.2" height="3.2"/>
    <rect x="80.4" y="42" width="3.2" height="3.2"/>
    <rect x="10" y="45.2" width="3.2" height="3.2"/>
    <rect x="19.6" y="45.2" width="3.2" height="3.2"/>
    <rect x="38.8" y="45.2" width="3.2" height="3.2"/>
    <rect x="42" y="45.2" width="3.2" height="3.2"/>
    <rect x="45.2" y="45.2" width="3.2" height="3.2"/>
    <rect x="51.6" y="45.2" width="3.2" height="3.2"/>
    <rect x="61.2" y="45.2" width="3.2" height="3.2"/>
    <rect x="22.8" y="48.4" width="3.2" height="3.2"/>
    <rect x="26" y="48.4" width="3.2" height="3.2"/>
    <rect x="29.2" y="48.4" width="3.2" height="3.2"/>
    <rect x="35.6" y="48.4" width="3.2" height="3.2"/>
    <rect x="38.8" y="48.4" width="3.2" height="3.2"/>
    <rect x="48.4" y="48.4" width="3.2" height="3.2"/>
    <rect x="51.6" y="48.4" width="3.2" height="3.2"/>
    <rect x="54.8" y="48.4" width="3.2" height="3.2"/>
    <rect x="58" y="48.4" width="3.2" height="3.2"/>
    <rect x="61.2" y="48.4" width="3.2" height="3.2"/>
    <rect x="64.4" y="48.4" width="3.2" height="3.2"/>
    <rect x="67.6" y="48.4" width="3.2" height="3.2"/>
    <rect x="70.8" y="48.4" width="3.2" height="3.2"/>
    <rect x="74" y="48.4" width="3.2" height="3.2"/>
    <rect x="77.2" y="48.4" width="3.2" height="3.2"/>
    <rect x="83.6" y="48.4" width="3.2" height="3.2"/>
    <rect x="86.8" y="48.4" width="3.2" height="3.2"/>
    <rect x="10" y="51.6" width="3.2" height="3.2"/>
    <rect x="19.6" y="51.6" width="3.2" height="3.2"/>
    <rect x="26" y="51.6" width="3.2" height="3.2"/>
    <rect x="32.4" y="51.6" width="3.2" height="3.2"/>
    <rect x="38.8" y="51.6" width="3.2" height="3.2"/>
    <rect x="42" y="51.6" width="3.2" height="3.2"/>
    <rect x="48.4" y="51.6" width="3.2" height="3.2"/>
    <rect x="54.8" y="51.6" width="3.2" height="3.2"/>
    <rect x="58" y="51.6" width="3.2" height="3.2"/>
    <rect x="61.2" y="51.6" width="3.2" height="3.2"/>
    <rect x="64.4" y="51.6" width="3.2" height="3.2"/>
    <rect x="70.8" y="51.6" width="3.2" height="3.2"/>
    <rect x="74" y="51.6" width="3.2" height="3.2"/>
    <rect x="86.8" y="51.6" width="3.2" height="3.2"/>
    <rect x="10" y="54.8" width="3.2" height="3.2"/>
    <rect x="16.4" y="54.8" width="3.2" height="3.2"/>
    <rect x="29.2" y="54.8" width="3.2" height="3.2"/>
    <rect x="35.6" y="54.8" width="3.2" height="3.2"/>
    <rect x="38.8" y="54.8" width="3.2" height="3.2"/>
    <rect x="42" y="54.8" width="3.2" height="3.2"/>
    <rect x="45.2" y="54.8" width="3.2" height="3.2"/>
    <rect x="48.4" y="54.8" width="3.2" height="3.2"/>
    <rect x="51.6" y="54.8" width="3.2" height="3.2"/>
    <rect x="54.8" y="54.8" width="3.2" height="3.2"/>
    <rect x="58" y="54.8" width="3.2" height="3.2"/>
    <rect x="61.2" y="54.8" width="3.2" height="3.2"/>
    <rect x="64.4" y="54.8" width="3.2" height="3.2"/>
    <rect x="67.6" y="54.8" width="3.2" height="3.2"/>
    <rect x="74" y="54.8" width="3.2" height="3.2"/>
    <rect x="80.4" y="54.8" width="3.2" height="3.2"/>
    <rect x="83.6" y="54.8" width="3.2" height="3.2"/>
    <rect x="10" y="58" width="3.2" height="3.2"/>
    <rect x="16.4" y="58" width="3.2" height="3.2"/>
    <rect x="19.6" y="58" width="3.2" height="3.2"/>
    <rect x="22.8" y="58" width="3.2" height="3.2"/>
    <rect x="32.4" y="58" width="3.2" height="3.2"/>
    <rect x="35.6" y="58" width="3.2" height="3.2"/>
    <rect x="45.2" y="58" width="3.2" height="3.2"/>
    <rect x="51.6" y="58" width="3.2" height="3.2"/>
    <rect x="61.2" y="58" width="3.2" height="3.2"/>
    <rect x="83.6" y="58" width="3.2" height="3.2"/>
    <rect x="86.8" y="58" width="3.2" height="3.2"/>
    <rect x="10" y="61.2" width="3.2" height="3.2"/>
    <rect x="16.4" y="61.2" width="3.2" height="3.2"/>
    <rect x="19.6" y="61.2" width="3.2" height="3.2"/>
    <rect x="26" y="61.2" width="3.2" height="3.2"/>
    <rect x="29.2" y="61.2" width="3.2" height="3.2"/>
    <rect x="35.6" y="61.2" width="3.2" height="3.2"/>
    <rect x="51.6" y="61.2" width="3.2" height="3.2"/>
    <rect x="54.8" y="61.2" width="3.2" height="3.2"/>
    <rect x="58" y="61.2" width="3.2" height="3.2"/>
    <rect x="61.2" y="61.2" width="3.2" height="3.2"/>
    <rect x="64.4" y="61.2" width="3.2" height="3.2"/>
    <rect x="67.6" y="61.2" width="3.2" height="3.2"/>
    <rect x="70.8" y="61.2" width="3.2" height="3.2"/>
    <rect x="74" y="61.2" width="3.2" height="3.2"/>
    <rect x="77.2" y="61.2" width="3.2" height="3.2"/>
    <rect x="86.8" y="61.2" width="3.2" height="3.2"/>
    <rect x="35.6" y="64.4" width="3.2" height="3.2"/>
    <rect x="38.8" y="64.4" width="3.2" height="3.2"/>
    <rect x="42" y="64.4" width="3.2" height="3.2"/>
    <rect x="45.2" y="64.4" width="3.2" height="3.2"/>
    <rect x="48.4" y="64.4" width="3.2" height="3.2"/>
    <rect x="58" y="64.4" width="3.2" height="3.2"/>
    <rect x="61.2" y="64.4" width="3.2" height="3.2"/>
    <rect x="74" y="64.4" width="3.2" height="3.2"/>
    <rect x="86.8" y="64.4" width="3.2" height="3.2"/>
    <rect x="35.6" y="67.6" width="3.2" height="3.2"/>
    <rect x="42" y="67.6" width="3.2" height="3.2"/>
    <rect x="51.6" y="67.6" width="3.2" height="3.2"/>
    <rect x="54.8" y="67.6" width="3.2" height="3.2"/>
    <rect x="58" y="67.6" width="3.2" height="3.2"/>
    <rect x="61.2" y="67.6" width="3.2" height="3.2"/>
    <rect x="67.6" y="67.6" width="3.2" height="3.2"/>
    <rect x="74" y="67.6" width="3.2" height="3.2"/>
    <rect x="80.4" y="67.6" width="3.2" height="3.2"/>
    <rect x="83.6" y="67.6" width="3.2" height="3.2"/>
    <rect x="86.8" y="67.6" width="3.2" height="3.2"/>
    <rect x="45.2" y="70.8" width="3.2" height="3.2"/>
    <rect x="51.6" y="70.8" width="3.2" height="3.2"/>
    <rect x="58" y="70.8" width="3.2" height="3.2"/>
    <rect x="61.2" y="70.8" width="3.2" height="3.2"/>
    <rect x="74" y="70.8" width="3.2" height="3.2"/>
    <rect x="77.2" y="70.8" width="3.2" height="3.2"/>
    <rect x="35.6" y="74" width="3.2" height="3.2"/>
    <rect x="38.8" y="74" width="3.2" height="3.2"/>
    <rect x="61.2" y="74" width="3.2" height="3.2"/>
    <rect x="64.4" y="74" width="3.2" height="3.2"/>
    <rect x="67.6" y="74" width="3.2" height="3.2"/>
    <rect x="70.8" y="74" width="3.2" height="3.2"/>
    <rect x="74" y="74" width="3.2" height="3.2"/>
    <rect x="77.2" y="74" width="3.2" height="3.2"/>
    <rect x="35.6" y="77.2" width="3.2" height="3.2"/>
    <rect x="42" y="77.2" width="3.2" height="3.2"/>
    <rect x="45.2" y="77.2" width="3.2" height="3.2"/>
    <rect x="54.8" y="77.2" width="3.2" height="3.2"/>
    <rect x="58" y="77.2" width="3.2" height="3.2"/>
    <rect x="61.2" y="77.2" width="3.2" height="3.2"/>
    <rect x="74" y="77.2" width="3.2" height="3.2"/>
    <rect x="83.6" y="77.2" width="3.2" height="3.2"/>
    <rect x="86.8" y="77.2" width="3.2" height="3.2"/>
    <rect x="35.6" y="80.4" width="3.2" height="3.2"/>
    <rect x="38.8" y="80.4" width="3.2" height="3.2"/>
    <rect x="45.2" y="80.4" width="3.2" height="3.2"/>
    <rect x="48.4" y="80.4" width="3.2" height="3.2"/>
    <rect x="51.6" y="80.4" width="3.2" height="3.2"/>
    <rect x="54.8" y="80.4" width="3.2" height="3.2"/>
    <rect x="64.4" y="80.4" width="3.2" height="3.2"/>
    <rect x="67.6" y="80.4" width="3.2" height="3.2"/>
    <rect x="74" y="80.4" width="3.2" height="3.2"/>
    <rect x="80.4" y="80.4" width="3.2" height="3.2"/>
    <rect x="86.8" y="80.4" width="3.2" height="3.2"/>
    <rect x="35.6" y="83.6" width="3.2" height="3.2"/>
    <rect x="38.8" y="83.6" width="3.2" height="3.2"/>
    <rect x="42" y="83.6" width="3.2" height="3.2"/>
    <rect x="45.2" y="83.6" width="3.2" height="3.2"/>
    <rect x="51.6" y="83.6" width="3.2" height="3.2"/>
    <rect x="58" y="83.6" width="3.2" height="3.2"/>
    <rect x="64.4" y="83.6" width="3.2" height="3.2"/>
    <rect x="67.6" y="83.6" width="3.2" height="3.2"/>
    <rect x="70.8" y="83.6" width="3.2" height="3.2"/>
    <rect x="74" y="83.6" width="3.2" height="3.2"/>
    <rect x="77.2" y="83.6" width="3.2" height="3.2"/>
    <rect x="83.6" y="83.6" width="3.2" height="3.2"/>
    <rect x="35.6" y="86.8" width="3.2" height="3.2"/>
    <rect x="51.6" y="86.8" width="3.2" height="3.2"/>
    <rect x="64.4" y="86.8" width="3.2" height="3.2"/>
    <rect x="80.4" y="86.8" width="3.2" height="3.2"/>
    <rect x="83.6" y="86.8" width="3.2" height="3.2"/>
    <rect x="86.8" y="86.8" width="3.2" height="3.2"/>
    <g id="Ebene_1">
    </g>
    <g id="Ebene_11" serif:id="Ebene_1">
    </g>
    <g id="Ebene_12" serif:id="Ebene_1">
    </g>
    <g id="Ebene_13" serif:id="Ebene_1">
    </g>
    <g id="Ebene_14" serif:id="Ebene_1">
    </g>
    <g id="Ebene_15" serif:id="Ebene_1">
    </g>
    <rect x="0" y="0" width="100" height="100" style="fill:none;stroke:black;stroke-width:5px;"/>
</svg>
